<?xml version="1.0" encoding="UTF-8" standalone="no"?>
<svg
   xmlns:dc="http://purl.org/dc/elements/1.1/"
   xmlns:cc="http://creativecommons.org/ns#"
   xmlns:rdf="http://www.w3.org/1999/02/22-rdf-syntax-ns#"
   xmlns:svg="http://www.w3.org/2000/svg"
   xmlns="http://www.w3.org/2000/svg"
   xmlns:sodipodi="http://sodipodi.sourceforge.net/DTD/sodipodi-0.dtd"
   xmlns:inkscape="http://www.inkscape.org/namespaces/inkscape"
   width="215pt"
   height="214pt"
   viewBox="0 0 215 214"
   version="1.1"
   id="svg3404"
   inkscape:version="0.91 r13725"
   sodipodi:docname="bglogo_24.svg">
  <metadata
     id="metadata3432">
    <rdf:RDF>
      <cc:Work
         rdf:about="">
        <dc:format>image/svg+xml</dc:format>
        <dc:type
           rdf:resource="http://purl.org/dc/dcmitype/StillImage" />
        <dc:title></dc:title>
      </cc:Work>
    </rdf:RDF>
  </metadata>
  <defs
     id="defs3430" />
  <sodipodi:namedview
     pagecolor="#ffffff"
     bordercolor="#666666"
     borderopacity="1"
     objecttolerance="10"
     gridtolerance="10"
     guidetolerance="10"
     inkscape:pageopacity="0"
     inkscape:pageshadow="2"
     inkscape:window-width="1194"
     inkscape:window-height="760"
     id="namedview3428"
     showgrid="false"
     inkscape:zoom="1"
     inkscape:cx="9.5515371"
     inkscape:cy="107.64557"
     inkscape:window-x="0"
     inkscape:window-y="0"
     inkscape:window-maximized="0"
     inkscape:current-layer="svg3404" />
  <path
     d="M 135.55859 6.9042969 C 129.20464 6.9301773 122.85234 7.4367187 116.57422 8.4375 C 87.299219 12.875 59.838281 28.175 40.613281 50.6875 C 23.675781 70.25 13.025 95.1625 10.6875 120.9375 C 8.075 147.6625 14.2375 175.2 28.25 198.125 C 29.6375 200.3375 30.925781 202.61289 32.050781 204.96289 C 35.050781 207.93789 37.3625 211.49961 40.125 214.66211 C 60.5625 238.88711 90.525 254.86172 122.0625 258.19922 C 149 261.26172 176.96172 255.425 200.26172 241.5 C 223.34922 227.9 241.96328 206.76172 252.30078 182.01172 C 263.28828 156.17422 265.12461 126.65039 257.72461 99.587891 C 249.33711 68.375391 228.28711 40.9 200.47461 24.5 C 180.97266 12.859375 158.2513 6.8118668 135.55859 6.9042969 z M 136.5957 18.164062 C 156.86859 18.243313 177.12891 23.798828 194.55078 34.199219 C 220.28828 49.311719 239.625 74.8625 247.125 103.75 C 255.9875 136.4875 249.09922 172.92422 229.07422 200.26172 C 220.29922 191.11172 214.68711 179.47539 210.97461 167.46289 C 218.51211 161.55039 225.27578 154.18711 228.92578 145.22461 C 231.18828 139.31211 229.95078 130.63789 223.36328 128.15039 C 217.15078 126.51289 210.575 127.70039 204.6875 129.96289 C 202.125 111.56289 204.12578 92.036719 196.23828 74.761719 C 187.16328 56.936719 170.6875 43.275 152.0625 36.3125 C 135.925 30.3 117.675 33.599219 102.9375 41.824219 C 86.1875 51.211719 72.275391 66.063281 64.900391 83.863281 C 59.050391 97.750781 59.688281 113.16289 60.300781 127.90039 C 55.588281 128.06289 50.499609 130.47461 49.412109 135.47461 C 47.049609 145.27461 50.311719 156.21211 57.636719 163.16211 C 53.661719 174.66211 46.499609 184.66211 39.162109 194.22461 C 25.262109 172.49961 19.175391 145.95039 22.087891 120.33789 C 24.787891 95.412891 35.9625 71.4375 53.5 53.5 C 70.9 35.175 94.6 22.937891 119.625 19.400391 C 125.24141 18.55 130.9193 18.141872 136.5957 18.164062 z "
     transform="scale(0.8,0.8)"
     id="path3408" />
  <path
     fill="#ffffff"
     d=" M 90.99 57.74 C 95.03 55.46 100.43 55.95 103.57 59.53 C 107.38 64.01 109.17 69.95 109.80 75.71 C 109.10 85.08 109.03 94.50 109.47 103.88 C 101.32 105.13 93.38 107.60 85.82 110.87 C 80.33 113.01 74.47 116.01 68.42 114.68 C 62.92 112.61 62.24 106.26 61.15 101.28 C 60.18 93.19 63.45 85.28 67.36 78.37 C 72.85 69.24 81.68 62.62 90.99 57.74 Z"
     id="path3412" />
  <path
     fill="#ffffff"
     d=" M 111.31 77.97 C 111.88 68.84 118.02 59.95 126.97 57.31 C 132.94 55.48 139.56 57.86 143.59 62.47 C 152.69 72.62 156.41 86.61 156.28 100.01 C 156.37 104.20 155.75 108.58 153.47 112.18 C 144.82 110.23 137.07 105.31 128.19 104.32 C 122.53 103.56 116.78 103.14 111.09 103.82 C 110.47 95.22 110.67 86.56 111.31 77.97 Z"
     id="path3414" />
  <path
     fill="#000000"
     d=" M 80.51 91.72 C 82.72 90.86 85.46 90.99 87.49 92.28 C 88.88 95.34 84.00 95.70 81.98 95.26 C 79.80 95.58 77.88 92.55 80.51 91.72 Z"
     id="path3416" />
  <path
     fill="#000000"
     d=" M 131.91 93.09 C 133.53 90.51 136.96 90.30 139.56 91.34 C 140.81 91.61 141.26 92.36 140.90 93.59 C 138.49 95.92 134.18 95.41 131.91 93.09 Z"
     id="path3418" />
  <path
     fill="#f9a40b"
     d=" M 172.54 103.15 C 176.33 102.51 180.71 104.36 181.94 108.21 C 183.89 112.93 181.61 118.02 178.88 121.90 C 174.89 127.24 169.71 131.58 164.17 135.24 C 165.96 129.05 169.71 123.32 169.82 116.72 C 171.67 117.08 173.51 117.46 175.36 117.83 C 175.08 114.91 170.99 116.09 169.00 115.08 C 167.73 123.61 163.28 131.18 161.36 139.53 C 156.76 156.27 144.35 170.05 129.33 178.31 C 124.16 181.16 118.06 182.42 112.21 181.34 C 96.16 178.50 81.94 168.66 72.27 155.71 C 62.77 143.16 56.49 128.55 50.99 113.90 C 48.63 113.73 44.61 115.26 45.87 118.25 C 46.98 117.19 48.11 116.13 49.24 115.09 C 50.27 116.44 51.18 117.90 51.61 119.56 C 53.05 124.37 55.25 128.90 57.30 133.48 C 45.61 132.64 37.54 119.12 41.26 108.31 C 42.00 105.82 44.51 104.24 47.04 104.23 C 51.53 104.07 56.03 105.68 59.63 108.31 C 62.37 110.97 64.20 114.43 67.06 116.99 C 69.88 116.91 72.83 117.43 75.52 116.35 C 86.62 111.65 98.06 107.40 109.99 105.37 C 124.98 103.26 140.18 107.54 153.42 114.44 C 158.18 108.58 165.04 104.30 172.54 103.15 Z"
     id="path3420" />
  <path
     fill="#000000"
     d=" M 122.95 109.39 C 126.34 110.26 130.28 110.29 132.84 113.00 C 129.34 112.96 126.10 111.27 122.64 110.86 C 122.71 110.49 122.87 109.76 122.95 109.39 Z"
     id="path3422" />
  <path
     fill="#000000"
     d=" M 85.06 116.43 C 88.73 115.10 92.33 113.39 96.22 112.84 C 93.38 116.16 88.53 116.48 84.63 117.92 C 84.74 117.55 84.95 116.80 85.06 116.43 Z"
     id="path3424" />
  <path
     fill="#ffffff"
     d=" M 39.83 166.80 C 44.62 156.34 51.49 146.77 60.39 139.42 C 65.57 149.18 71.49 158.77 79.72 166.27 C 89.09 174.93 100.88 181.00 113.42 183.41 C 123.68 184.81 133.28 179.20 140.82 172.80 C 149.42 165.04 157.74 156.12 161.19 144.78 C 167.68 151.66 172.91 159.67 176.54 168.40 C 161.09 185.33 139.09 196.18 116.21 197.88 C 87.71 200.41 58.57 188.36 39.83 166.80 Z"
     id="path3426" />
</svg>
