<?xml version="1.0" encoding="UTF-8" standalone="no"?>
<svg
   xmlns:dc="http://purl.org/dc/elements/1.1/"
   xmlns:cc="http://creativecommons.org/ns#"
   xmlns:rdf="http://www.w3.org/1999/02/22-rdf-syntax-ns#"
   xmlns:svg="http://www.w3.org/2000/svg"
   xmlns="http://www.w3.org/2000/svg"
   version="1.1"
   id="svg2"
   viewBox="0 0 1306.4347 427.41883"
   height="427.41882"
   width="1306.4347">
  <defs
     id="defs4">
    <filter
       height="1.0824006"
       y="-0.041200321"
       width="1.0338629"
       x="-0.016931452"
       id="filter4810"
       style="color-interpolation-filters:sRGB">
      <feGaussianBlur
         id="feGaussianBlur4812"
         stdDeviation="0.7464125" />
    </filter>
  </defs>
  <metadata
     id="metadata7">
    <rdf:RDF>
      <cc:Work
         rdf:about="">
        <dc:format>image/svg+xml</dc:format>
        <dc:type
           rdf:resource="http://purl.org/dc/dcmitype/StillImage" />
        <dc:title></dc:title>
      </cc:Work>
    </rdf:RDF>
  </metadata>
  <g
     transform="translate(427.44542,-34.439195)"
     id="layer1">
    <g
       id="text4242"
       style="font-style:normal;font-weight:normal;font-size:40px;line-height:125%;font-family:sans-serif;letter-spacing:0px;word-spacing:0px;fill:#000000;fill-opacity:0.39215686;stroke:none;stroke-width:1px;stroke-linecap:butt;stroke-linejoin:miter;stroke-opacity:1;filter:url(#filter4810)" />
    <path
       id="path3359"
       style="fill:#282e2f"
       d="m 190.60924,159.69042 q 0,53.76 -20.8,79.04 -8.64,10.24 -20.8,14.4 18.24,16.96 18.24,45.76 0,45.76 -80.960005,45.76 -24,0 -47.68,-3.84 l -7.04,-260.480004 63.04,-2.24 q 27.840005,0.32 48.000005,8.32 48,19.520004 48,73.280004 z m -67.52,59.2 q -0.32,-16.96 -20.8,-16.96 -10.880005,0 -24.000005,4.48 l 1.92,41.28 q 43.200005,-2.88 42.880005,-28.8 z m -3.52,65.6 q 0.32,-22.4 -27.520005,-22.4 -7.36,0 -14.4,1.6 l -0.64,34.24 q 12.48,4.8 22.72,4.8 19.200005,0 19.840005,-18.24 z" />
    <path
       id="path3361"
       style="fill:#282e2f"
       d="m 367.04924,99.850416 -18.56,126.400004 -32,-5.76 q -16.96,-3.52 -33.92,-3.52 -54.72,0 -57.28,39.04 -1.92,34.88 34.24,48.64 15.36,5.44 37.12,6.4 l 3.84,-24 -43.52,8.96 -8.96,-60.16 99.2,9.6 4.48,110.4 -58.88,2.88 q -35.84,0 -61.44,-14.4 -55.36,-31.68 -55.36,-120.32 0,-73.92 46.72,-106.56 34.24,-23.360004 89.28,-23.360004 28.8,0 55.04,5.76 z" />
    <path
       id="path3363"
       style="fill:#f89a0f"
       d="m 376.65428,355.85042 -22.4,-243.84 125.76,-17.920004 -9.28,252.800004 -94.08,8.96 z" />
    <path
       id="path3365"
       style="fill:#f89a0f"
       d="m 688.83924,247.05042 q 0,41.6 -3.2,57.92 -5.76,32.64 -26.56,49.6 -25.6,20.8 -76.48,20.8 -69.12,0 -92.8,-77.76 -9.92,-32.64 -9.92,-77.76 l -0.64,-98.24 117.44,-17.6 q -8.64,84.48 -8.64,140.48 0,64.64 12.8,64.64 20.8,0 20.8,-106.24 0,-17.28 -0.64,-32 l 66.88,-10.88 q 0.96,35.52 0.96,87.04 z" />
    <path
       id="path3367"
       style="fill:#f89a0f"
       d="m 865.18924,239.69042 q 12.8,38.4 12.8,75.84 0,75.2 -55.68,101.44 -18.88,8.96 -37.44,8.96 -43.52,0 -72.96,-44.48 l 54.08,-31.04 q 16.96,28.48 32.96,27.84 25.28,-1.28 25.28,-29.12 0,-16.32 -7.68,-36.48 -4.48,7.36 -11.52,13.44 -17.28,14.08 -45.76,17.6 -3.52,0.32 -6.72,0.32 -31.36,0 -51.2,-33.92 -19.84,-33.92 -21.12,-87.36 -1.6,-54.08 17.6,-87.68 17.6,-31.68 47.36,-35.200004 5.44,-0.64 10.88,-0.64 26.88,0 36.48,15.040004 l -5.44,-17.600004 q 9.28,-2.56 34.56,-8.32 l 43.52,151.360004 z m -74.24,21.12 q -9.6,0 -19.2,5.44 -17.6,10.24 -17.6,25.28 0,7.68 5.44,12.16 5.76,4.16 13.76,4.16 9.6,0 19.2,-5.76 17.92,-10.24 17.92,-25.28 0,-7.68 -5.76,-11.84 -5.44,-4.16 -13.76,-4.16 z" />
    <path
       d="m 42.105075,413.71762 0,12.95384 7.67288,0 q 3.86008,0 5.70728,-1.58672 1.8708,-1.61032 1.8708,-4.90208 0,-3.31544 -1.8708,-4.8784 -1.8472,-1.58664 -5.70728,-1.58664 l -7.67288,0 z m 0,-14.54056 0,10.65672 7.0808,0 q 3.50488,0 5.21,-1.30248 1.72872,-1.32616 1.72872,-4.02584 0,-2.67608 -1.72872,-4.00224 -1.70512,-1.32616 -5.21,-1.32616 l -7.0808,0 z m -4.78368,-3.93112 12.21976,0 q 5.4704,0 8.43064,2.27344 2.96024,2.27344 2.96024,6.46504 0,3.2444 -1.51568,5.16264 -1.5156,1.91816 -4.45216,2.39184 3.52856,0.7576 5.47048,3.17336 1.9656,2.39184 1.9656,5.99144 0,4.73632 -3.22072,7.3176 -3.22072,2.58128 -9.1648,2.58128 l -12.69336,0 0,-35.35664 z"
       style="fill:#7e7e7e"
       id="path4171" />
    <path
       d="m 93.067955,416.25154 0,2.13136 -20.03464,0 q 0.284,4.49952 2.69968,6.86768 2.43928,2.34448 6.77296,2.34448 2.51024,0 4.85472,-0.616 2.36824,-0.616 4.68904,-1.84712 l 0,4.12056 q -2.34448,0.99464 -4.80744,1.5156 -2.46288,0.5208 -4.9968,0.5208 -6.34664,0 -10.06472,-3.69432 -3.69432,-3.6944 -3.69432,-9.99368 0,-6.51248 3.50488,-10.3252 3.52856,-3.8364 9.49632,-3.8364 5.35208,0 8.4544,3.45752 3.12592,3.43384 3.12592,9.35424 z m -4.35736,-1.2788 q -0.048,-3.57592 -2.01296,-5.70728 -1.94192,-2.13136 -5.16264,-2.13136 -3.64696,0 -5.84936,2.06032 -2.17872,2.06032 -2.51024,5.802 l 15.5352,-0.024 z"
       style="fill:#7e7e7e"
       id="path4173" />
    <path
       d="m 115.49452,408.15242 q -0.7344,-0.4264 -1.6104,-0.616 -0.85248,-0.2128 -1.89448,-0.2128 -3.69432,0 -5.6836,2.41552 -1.9656,2.39184 -1.9656,6.89136 l 0,13.97216 -4.381125,0 0,-26.52344 4.381125,0 0,4.12064 q 1.37352,-2.41552 3.57592,-3.57592 2.2024,-1.18408 5.35208,-1.18408 0.4496,0 0.99464,0.072 0.5448,0.048 1.20776,0.1656 l 0.024,4.47584 z"
       style="fill:#7e7e7e"
       id="path4175" />
    <path
       d="m 136.7606,417.03306 q 0,-4.7364 -1.96552,-7.34136 -1.94192,-2.60496 -5.47048,-2.60496 -3.50488,0 -5.47048,2.60496 -1.94192,2.60496 -1.94192,7.34136 0,4.71264 1.94192,7.3176 1.9656,2.60496 5.47048,2.60496 3.52856,0 5.47048,-2.60496 1.96552,-2.60496 1.96552,-7.3176 z m 4.35744,10.27776 q 0,6.77296 -3.0076,10.06472 -3.00752,3.31544 -9.21216,3.31544 -2.29712,0 -4.33368,-0.3552 -2.03664,-0.3312 -3.95488,-1.042 l 0,-4.23904 q 1.91824,1.042 3.78912,1.53928 1.8708,0.4976 3.81272,0.4976 4.2864,0 6.41768,-2.24976 2.13136,-2.22608 2.13136,-6.74928 l 0,-2.15504 q -1.34984,2.34448 -3.45752,3.50488 -2.10768,1.1604 -5.04416,1.1604 -4.8784,0 -7.86232,-3.718 -2.98384,-3.718 -2.98384,-9.85152 0,-6.15728 2.98384,-9.87528 2.98392,-3.718 7.86232,-3.718 2.93648,0 5.04416,1.1604 2.10768,1.1604 3.45752,3.50488 l 0,-4.02592 4.35744,0 0,23.23168 z"
       style="fill:#7e7e7e"
       id="path4177" />
    <path
       d="m 162.19468,417.26986 q -5.28096,0 -7.3176,1.20776 -2.03664,1.20776 -2.03664,4.12056 0,2.3208 1.5156,3.6944 1.53936,1.34984 4.168,1.34984 3.62328,0 5.802,-2.55768 2.2024,-2.58128 2.2024,-6.84392 l 0,-0.97096 -4.33376,0 z m 8.6912,-1.79984 0,15.13256 -4.35744,0 0,-4.02584 q -1.49192,2.41552 -3.718,3.57592 -2.22608,1.13672 -5.4468,1.13672 -4.0732,0 -6.4888,-2.27344 -2.39184,-2.29712 -2.39184,-6.13352 0,-4.47584 2.98392,-6.74928 3.0076,-2.27344 8.95168,-2.27344 l 6.10984,0 0,-0.4264 q 0,-3.00752 -1.98928,-4.6416 -1.96552,-1.65768 -5.54144,-1.65768 -2.27344,0 -4.42848,0.5448 -2.15504,0.5448 -4.14432,1.63408 l 0,-4.02592 q 2.39184,-0.92352 4.6416,-1.37352 2.24976,-0.4736 4.38112,-0.4736 5.75464,0 8.5964,2.98384 2.84184,2.98392 2.84184,9.0464 z"
       style="fill:#7e7e7e"
       id="path4179" />
    <path
       d="m 200.63004,409.17074 q 1.634,-2.93656 3.90744,-4.33376 2.27344,-1.3972 5.35208,-1.3972 4.14424,0 6.394,2.9128 2.24976,2.8892 2.24976,8.2412 l 0,16.0088 -4.38112,0 0,-15.86664 q 0,-3.8128 -1.34984,-5.65992 -1.34984,-1.8472 -4.12056,-1.8472 -3.38648,0 -5.35208,2.24976 -1.9656,2.24976 -1.9656,6.13352 l 0,14.99048 -4.38112,0 0,-15.86664 q 0,-3.83648 -1.34984,-5.65992 -1.34984,-1.8472 -4.16792,-1.8472 -3.33912,0 -5.30472,2.27344 -1.9656,2.24976 -1.9656,6.10984 l 0,14.99048 -4.38104,0 0,-26.52344 4.38104,0 0,4.12064 q 1.492,-2.4392 3.57592,-3.5996 2.084,-1.1604 4.94952,-1.1604 2.88912,0 4.90208,1.46824 2.03664,1.46824 3.0076,4.26272 z"
       style="fill:#7e7e7e"
       id="path4181" />
    <path
       d="m 237.43124,407.1341 q -3.50488,0 -5.54144,2.74704 -2.03664,2.72344 -2.03664,7.48344 0,4.76 2.01296,7.50704 2.03656,2.72344 5.56512,2.72344 3.4812,0 5.51784,-2.74712 2.03664,-2.74704 2.03664,-7.48336 0,-4.71264 -2.03664,-7.45976 -2.03664,-2.77072 -5.51784,-2.77072 z m 0,-3.69432 q 5.6836,0 8.928,3.69432 3.2444,3.69432 3.2444,10.23048 0,6.5124 -3.2444,10.23048 -3.2444,3.69432 -8.928,3.69432 -5.70728,0 -8.9516,-3.69432 -3.22072,-3.71808 -3.22072,-10.23048 0,-6.53616 3.22072,-10.23048 3.24432,-3.69432 8.9516,-3.69432 z"
       style="fill:#7e7e7e"
       id="path4183" />
    <path
       d="m 272.43276,395.24594 4.78368,0 0,31.3308 17.21656,0 0,4.02584 -22.00024,0 0,-35.35664 z"
       style="fill:#7e7e7e"
       id="path4185" />
    <path
       d="m 299.24036,404.07914 4.35744,0 0,26.52344 -4.35744,0 0,-26.52344 z m 0,-10.3252 4.35744,0 0,5.51784 -4.35744,0 0,-5.51784 z"
       style="fill:#7e7e7e"
       id="path4187" />
    <path
       d="m 334.73916,414.59378 0,16.0088 -4.35744,0 0,-15.86664 q 0,-3.76544 -1.46824,-5.63624 -1.46832,-1.87088 -4.4048,-1.87088 -3.52856,0 -5.5652,2.24976 -2.03664,2.24976 -2.03664,6.13352 l 0,14.99048 -4.38112,0 0,-26.52344 4.38112,0 0,4.12064 q 1.56304,-2.39184 3.67064,-3.57592 2.13136,-1.18408 4.90216,-1.18408 4.57056,0 6.91504,2.84176 2.34448,2.81816 2.34448,8.31224 z"
       style="fill:#7e7e7e"
       id="path4189" />
    <path
       d="m 343.02772,420.1353 0,-16.05616 4.35744,0 0,15.8904 q 0,3.76536 1.46824,5.65992 1.46824,1.87088 4.4048,1.87088 3.52856,0 5.5652,-2.24976 2.06024,-2.24976 2.06024,-6.1336 l 0,-15.03784 4.35744,0 0,26.52344 -4.35744,0 0,-4.0732 q -1.58664,2.41552 -3.69432,3.5996 -2.084,1.1604 -4.85472,1.1604 -4.57056,0 -6.93872,-2.84184 -2.36816,-2.84176 -2.36816,-8.31224 z"
       style="fill:#7e7e7e"
       id="path4191" />
    <path
       d="m 396.3114,404.07914 -9.59104,12.90648 10.08832,13.61696 -5.13888,0 -7.72024,-10.41992 -7.72016,10.41992 -5.13896,0 10.30152,-13.87744 -9.42528,-12.646 5.13888,0 7.03344,9.44896 7.03352,-9.44896 5.13888,0 z"
       style="fill:#7e7e7e"
       id="path4193" />
    <path
       d="m 418.05116,395.24594 4.80736,0 0,21.4792 q 0,5.6836 2.06032,8.19384 2.06032,2.48664 6.67824,2.48664 4.59424,0 6.65448,-2.48664 2.06032,-2.51024 2.06032,-8.19384 l 0,-21.4792 4.80736,0 0,22.07128 q 0,6.91504 -3.43384,10.4436 -3.41016,3.52856 -10.08832,3.52856 -6.70192,0 -10.13576,-3.52856 -3.41016,-3.52856 -3.41016,-10.4436 l 0,-22.07128 z"
       style="fill:#7e7e7e"
       id="path4195" />
    <path
       d="m 470.83756,404.86066 0,4.12064 q -1.8472,-0.94728 -3.83648,-1.42096 -1.9892,-0.4736 -4.12056,-0.4736 -3.2444,0 -4.87848,0.99464 -1.61032,0.99464 -1.61032,2.98384 0,1.51568 1.1604,2.39184 1.1604,0.85256 4.66528,1.63408 l 1.49192,0.3312 q 4.6416,0.99464 6.58352,2.81816 1.9656,1.79976 1.9656,5.04416 0,3.69432 -2.93656,5.84936 -2.9128,2.15504 -8.02808,2.15504 -2.13136,0 -4.45216,-0.4264 -2.29712,-0.4024 -4.85472,-1.23152 l 0,-4.49944 q 2.41552,1.25512 4.76,1.89448 2.34448,0.616 4.6416,0.616 3.07864,0 4.73632,-1.042 1.65776,-1.06568 1.65776,-2.98392 0,-1.77608 -1.20776,-2.72336 -1.18408,-0.94728 -5.23368,-1.82352 l -1.5156,-0.3552 q -4.04952,-0.85256 -5.84936,-2.60496 -1.79984,-1.77616 -1.79984,-4.85472 0,-3.74176 2.6524,-5.77832 2.65232,-2.03664 7.53072,-2.03664 2.41552,0 4.54688,0.3552 2.13136,0.3552 3.9312,1.06568 z"
       style="fill:#7e7e7e"
       id="path4197" />
    <path
       d="m 501.9078,416.25154 0,2.13136 -20.03464,0 q 0.284,4.49952 2.69968,6.86768 2.43928,2.34448 6.77296,2.34448 2.51024,0 4.8548,-0.616 2.36816,-0.616 4.68896,-1.84712 l 0,4.12056 q -2.34448,0.99464 -4.80744,1.5156 -2.46288,0.5208 -4.9968,0.5208 -6.34664,0 -10.06472,-3.69432 -3.69432,-3.6944 -3.69432,-9.99368 0,-6.51248 3.50488,-10.3252 3.52856,-3.8364 9.49632,-3.8364 5.35208,0 8.4544,3.45752 3.12592,3.43384 3.12592,9.35424 z m -4.35736,-1.2788 q -0.048,-3.57592 -2.01296,-5.70728 -1.94192,-2.13136 -5.16264,-2.13136 -3.64696,0 -5.84936,2.06032 -2.17864,2.06032 -2.51024,5.802 l 15.5352,-0.024 z"
       style="fill:#7e7e7e"
       id="path4199" />
    <path
       d="m 524.33436,408.15242 q -0.7344,-0.4264 -1.6104,-0.616 -0.85248,-0.2128 -1.89448,-0.2128 -3.69432,0 -5.6836,2.41552 -1.9656,2.39184 -1.9656,6.89136 l 0,13.97216 -4.38112,0 0,-26.52344 4.38112,0 0,4.12064 q 1.37352,-2.41552 3.57592,-3.57592 2.2024,-1.18408 5.35208,-1.18408 0.4496,0 0.99464,0.072 0.5448,0.048 1.20776,0.1656 l 0.024,4.47584 z"
       style="fill:#7e7e7e"
       id="path4201" />
    <path
       d="m 545.861,404.86066 0,4.12064 q -1.8472,-0.94728 -3.83648,-1.42096 -1.98928,-0.4736 -4.12056,-0.4736 -3.2444,0 -4.87848,0.99464 -1.61032,0.99464 -1.61032,2.98384 0,1.51568 1.1604,2.39184 1.1604,0.85256 4.66528,1.63408 l 1.49192,0.3312 q 4.6416,0.99464 6.58352,2.81816 1.9656,1.79976 1.9656,5.04416 0,3.69432 -2.93656,5.84936 -2.9128,2.15504 -8.02808,2.15504 -2.13136,0 -4.45216,-0.4264 -2.29712,-0.4024 -4.85472,-1.23152 l 0,-4.49944 q 2.41552,1.25512 4.76,1.89448 2.34448,0.616 4.6416,0.616 3.07864,0 4.73632,-1.042 1.65776,-1.06568 1.65776,-2.98392 0,-1.77608 -1.20776,-2.72336 -1.18408,-0.94728 -5.23368,-1.82352 l -1.5156,-0.3552 q -4.0496,-0.85256 -5.84936,-2.60496 -1.79984,-1.77616 -1.79984,-4.85472 0,-3.74176 2.6524,-5.77832 2.65232,-2.03664 7.53072,-2.03664 2.41552,0 4.54688,0.3552 2.13136,0.3552 3.9312,1.06568 z"
       style="fill:#7e7e7e"
       id="path4203" />
    <path
       d="m 593.98204,425.55842 0,-9.49632 -7.81496,0 0,-3.9312 12.55128,0 0,15.17992 q -2.77072,1.9656 -6.10984,2.98392 -3.33912,0.99464 -7.12816,0.99464 -8.28856,0 -12.97752,-4.83104 -4.66528,-4.8548 -4.66528,-13.49856 0,-8.66752 4.66528,-13.49856 4.68896,-4.85472 12.97752,-4.85472 3.45752,0 6.55984,0.85256 3.12592,0.85256 5.75464,2.51024 l 0,5.09152 q -2.6524,-2.24976 -5.63624,-3.38648 -2.98392,-1.13664 -6.27568,-1.13664 -6.48872,0 -9.7568,3.62328 -3.2444,3.62328 -3.2444,10.7988 0,7.15184 3.2444,10.77512 3.26808,3.62328 9.7568,3.62328 2.53392,0 4.5232,-0.4264 1.98928,-0.4496 3.57592,-1.37352 z"
       style="fill:#7e7e7e"
       id="path4205" />
    <path
       d="m 622.66052,408.15242 q -0.7344,-0.4264 -1.61032,-0.616 -0.85256,-0.2128 -1.89456,-0.2128 -3.69432,0 -5.6836,2.41552 -1.9656,2.39184 -1.9656,6.89136 l 0,13.97216 -4.38104,0 0,-26.52344 4.38104,0 0,4.12064 q 1.3736,-2.41552 3.57592,-3.57592 2.2024,-1.18408 5.35208,-1.18408 0.4496,0 0.99464,0.072 0.5448,0.048 1.20776,0.1656 l 0.024,4.47584 z"
       style="fill:#7e7e7e"
       id="path4207" />
    <path
       d="m 636.56164,407.1341 q -3.50488,0 -5.54152,2.74704 -2.03656,2.72344 -2.03656,7.48344 0,4.76 2.01288,7.50704 2.03664,2.72344 5.5652,2.72344 3.4812,0 5.51784,-2.74712 2.03664,-2.74704 2.03664,-7.48336 0,-4.71264 -2.03664,-7.45976 -2.03664,-2.77072 -5.51784,-2.77072 z m 0,-3.69432 q 5.6836,0 8.928,3.69432 3.2444,3.69432 3.2444,10.23048 0,6.5124 -3.2444,10.23048 -3.2444,3.69432 -8.928,3.69432 -5.70728,0 -8.95168,-3.69432 -3.22064,-3.71808 -3.22064,-10.23048 0,-6.53616 3.22064,-10.23048 3.2444,-3.69432 8.95168,-3.69432 z"
       style="fill:#7e7e7e"
       id="path4209" />
    <path
       d="m 655.5306,420.1353 0,-16.05616 4.35744,0 0,15.8904 q 0,3.76536 1.46832,5.65992 1.46824,1.87088 4.40472,1.87088 3.52856,0 5.5652,-2.24976 2.06032,-2.24976 2.06032,-6.1336 l 0,-15.03784 4.35744,0 0,26.52344 -4.35744,0 0,-4.0732 q -1.58664,2.41552 -3.69432,3.5996 -2.084,1.1604 -4.85472,1.1604 -4.57056,0 -6.93872,-2.84184 -2.36824,-2.84176 -2.36824,-8.31224 z"
       style="fill:#7e7e7e"
       id="path4211" />
    <path
       d="m 690.98204,426.6241 0,14.06688 -4.38112,0 0,-36.61184 4.38112,0 0,4.02592 q 1.37352,-2.36816 3.45752,-3.50488 2.10768,-1.1604 5.02056,-1.1604 4.83104,0 7.83856,3.8364 3.03128,3.8364 3.03128,10.0884 0,6.25192 -3.03128,10.0884 -3.00752,3.8364 -7.83856,3.8364 -2.91288,0 -5.02056,-1.13672 -2.084,-1.1604 -3.45752,-3.52856 z m 14.82472,-9.25952 q 0,-4.80736 -1.98928,-7.5308 -1.96552,-2.74704 -5.42304,-2.74704 -3.45752,0 -5.4468,2.74704 -1.9656,2.72344 -1.9656,7.5308 0,4.80736 1.9656,7.5544 1.98928,2.72344 5.4468,2.72344 3.45752,0 5.42304,-2.72344 1.98928,-2.74704 1.98928,-7.5544 z"
       style="fill:#7e7e7e"
       id="path4213" />
    <path
       id="path5535"
       transform="translate(-427.44542,34.439195)"
       d="M 215.02344 1.0039062 C 207.92511 0.96545563 200.82553 1.2833469 193.76172 1.9667969 C 133.93386 7.1041569 77.188188 39.366562 42.048828 88.009766 C 14.894348 124.64625 0.56976573 170.29473 1.0097656 215.82617 C 1.4207256 263.73545 18.448179 311.35293 48.949219 348.37109 C 81.123619 387.97253 128.03481 415.38999 178.46875 423.43359 C 225.87891 431.59463 275.90179 422.84635 317.82227 399.33203 C 357.30635 377.16819 389.50972 342.08755 407.94531 300.69531 C 428.99371 253.87227 431.95826 199.35864 416.86914 150.36328 C 401.83882 101.33848 368.16669 58.448013 324.33789 31.939453 C 291.66722 11.851521 253.35443 1.2115407 215.02344 1.0039062 z M 214.30664 27.441406 C 221.90954 27.465304 229.51246 27.970084 237.0625 28.974609 C 283.85626 34.699089 327.94966 59.240659 357.6875 95.789062 C 384.57766 128.52114 400.28235 170.67787 399.69531 213.18555 C 400.48811 252.11187 387.4536 290.71547 364.9668 322.33203 C 352.31432 307.47787 343.80127 289.65834 337.75391 271.22266 C 350.25967 260.80122 362.26607 248.61758 367.84375 232.9707 C 370.86743 223.57678 369.19562 210.71838 359.39062 206.05078 C 348.85174 202.11702 337.54827 205.25949 327.18555 208.22461 C 323.36923 177.66485 326.27658 145.28435 313.0957 116.66211 C 297.83058 87.071145 270.26419 64.319486 239.05859 53.134766 C 208.82171 42.390446 174.85702 50.962551 148.96484 68.546875 C 122.95524 86.101915 101.52473 111.72993 92.189453 141.99609 C 85.819213 162.34001 88.022082 183.88734 87.669922 204.84766 C 80.771122 206.10998 72.844574 208.63524 70.496094 216.0918 C 65.094574 232.91276 71.522468 251.84799 83.617188 264.20703 C 77.158788 281.61519 66.619934 297.05617 55.552734 311.79297 C 32.449374 274.74545 22.822299 229.33146 29.574219 186.11914 C 36.443579 139.17866 62.275786 95.466684 99.822266 66.521484 C 132.22044 41.232066 173.251 27.312357 214.30664 27.441406 z M 188 110.32812 C 189.60032 110.29999 191.2259 110.43513 192.88086 110.76172 C 208.05806 116.19252 212.96226 134.1586 215.22266 148.45508 C 214.78266 168.41724 212.69669 188.37962 214.78125 208.3125 C 197.78405 211.36554 181.05141 216.12056 165.25781 223.13672 C 153.86765 227.6576 141.53903 233.70576 129.00391 230.47656 C 116.87983 224.07688 115.82155 208.34089 114.26562 196.24609 C 116.79037 167.35969 133.87542 140.67496 157.85938 124.64648 C 166.90107 118.68717 176.79779 110.5252 188 110.32812 z M 259.48828 110.88086 C 269.36122 110.73758 279.13947 115.79475 285.67578 123.17969 C 299.76674 139.20817 307.81086 159.96145 310.54102 181.00977 C 312.27302 195.95217 313.21273 211.80578 306.51953 225.7793 C 294.04321 222.60882 282.24122 217.47166 270.17578 213.09766 C 253.47218 207.60798 235.65427 207.54834 218.27539 207.8125 C 216.95443 190.02274 217.4243 172.14525 218.83398 154.38477 C 220.33118 135.80237 232.80659 117.48319 251.24219 112.28711 C 253.95213 111.36881 256.72386 110.92098 259.48828 110.88086 z M 349.80469 207.18164 C 350.36566 207.18467 350.92708 207.19996 351.49219 207.22656 C 363.55763 208.13656 369.25262 222.72528 365.08398 233 C 358.86046 250.73112 343.15683 262.76809 328.33203 273.18945 C 332.91155 260.88929 338.04701 248.73495 340.89453 235.87695 C 345.18053 236.20015 349.43861 236.40614 353.72461 236.49414 C 348.82213 234.20438 343.59639 232.79363 338.40039 231.50195 C 334.78951 249.05699 326.68694 265.20334 322.10742 282.49414 C 312.3611 318.07374 285.44234 347.25323 253.0625 364.01562 C 240.87962 370.32722 226.43669 370.6512 213.31445 367.36328 C 186.36557 360.46456 161.88159 344.75806 144.12109 323.35742 C 120.43061 295.8507 106.48741 261.79791 93.394531 228.39062 C 87.611411 229.71166 82.971653 233.02987 80.564453 238.54883 C 84.175253 236.46459 87.756514 234.35005 91.308594 232.17773 C 96.064354 245.06509 101.14321 257.83591 106.63281 270.40039 C 82.766253 266.96575 65.680711 240.19268 73.900391 217.29492 C 78.186311 207.0202 91.513937 208.31144 100.08594 211.7168 C 112.38618 215.21016 118.6695 227.04059 126.6543 235.93555 C 134.11086 235.73075 141.89026 236.17118 148.78906 232.82422 C 168.04668 224.63382 187.91972 217.67524 208.35156 213.125 C 241.49468 206.02084 275.93051 215.09228 305.49219 230.32812 C 317.03829 218.15636 332.41452 207.08761 349.80469 207.18164 z M 113.12109 282.73047 C 124.30581 302.69263 136.28361 322.74223 153.51562 338.18359 C 172.1569 355.35703 195.43639 367.3932 220.18359 372.85352 C 241.37879 377.19824 261.83902 366.30764 277.7207 353.21484 C 296.5967 337.157 313.97588 317.86851 322.07812 294.00195 C 334.20229 307.38835 344.47754 322.41956 351.69922 339.03516 C 319.93586 373.20572 275.66668 395.80944 228.93164 399.27344 C 170.601 404.7044 111.32953 379.60416 72.873047 335.7168 C 82.120167 315.25552 96.564298 297.70199 113.12109 282.73047 z "
       style="fill:#000000" />
    <path
       id="path5543"
       d="m -276.42556,223.87514 c 1.61456,-10.24528 17.61368,-9.71688 20.51992,-0.616 -6.63448,2.67144 -13.70936,2.28984 -20.51992,0.616 z"
       style="fill:#000000" />
    <path
       id="path5545"
       d="m -162.2302,216.00762 c 6.3704,-0.7344 12.74064,0.1472 17.34952,4.99064 -6.66376,4.1392 -14.79544,5.13728 -21.45928,0.4704 1.02744,-1.3504 3.08232,-4.10992 4.10976,-5.46032 z"
       style="fill:#000000" />
    <path
       id="path5547"
       d="m -121.95348,264.76826 c 11.91856,-12.5644 27.917681,-23.95464 46.001041,-23.10328 12.06544,0.91 17.76056,15.5 13.59192,25.77472 -6.22352,17.73112 -21.92904,29.76712 -36.75384,40.18848 4.57952,-12.30016 9.71688,-24.4536 12.5644,-37.3116 4.286,0.3232 8.54264,0.528 12.82864,0.616 -4.90248,-2.28976 -10.12792,-3.69888 -15.32392,-4.99056 -3.61088,17.55504 -11.713121,33.70088 -16.292641,50.99168 -9.74632,35.5796 -36.66584,64.7596 -69.04568,81.522 -12.18288,6.3116 -26.62608,6.63456 -39.74832,3.34664 -26.94888,-6.89872 -51.43192,-22.60424 -69.19242,-44.00488 -23.69048,-27.50672 -37.63456,-61.55992 -50.72744,-94.9672 -5.78312,1.32104 -10.42144,4.63824 -12.82864,10.1572 3.6108,-2.08424 7.19224,-4.19792 10.74432,-6.37024 4.75576,12.88736 9.83432,25.65728 15.32392,38.22176 -23.86656,-3.43464 -40.95176,-30.20752 -32.73208,-53.10528 4.28592,-10.27472 17.61368,-8.98304 26.18568,-5.57768 12.30024,3.49336 18.58248,15.32384 26.56728,24.2188 7.45656,-0.2048 15.23584,0.2352 22.13464,-3.11176 19.25762,-8.1904 39.13178,-15.14776 59.56362,-19.698 33.14312,-7.10416 67.57784,1.96688 97.13952,17.20272 z"
       style="fill:#f9a40b" />
    <path
       id="path5549"
       d="m -186.41956,256.9301 c 0.6752,-0.6464 1.99616,-1.99616 2.642,-2.642 7.13352,1.58528 14.26712,3.43472 20.78416,6.86936 -8.0436,0.7928 -15.76424,-2.20176 -23.42616,-4.22736 z"
       style="fill:#000000" />
    <path
       id="path5551"
       d="m -264.27212,268.99554 c 8.51328,-2.99432 16.9972,-6.54648 26.0976,-7.42712 -7.42712,5.3428 -16.26328,7.98488 -24.92336,10.62696 l -1.17424,-3.19984 z"
       style="fill:#000000" />
  </g>
</svg>
